<svg xmlns="http://www.w3.org/2000/svg" width="21.867" height="24" viewBox="0 0 21.867 24"><path d="M28.467,7.667H25V6.6A1.6,1.6,0,0,0,23.4,5H16.467a1.6,1.6,0,0,0-1.6,1.6V7.667H11.4a2.394,2.394,0,0,0-.267,4.773V27.4a1.6,1.6,0,0,0,1.6,1.6h14.4a1.6,1.6,0,0,0,1.6-1.6V12.44a2.394,2.394,0,0,0-.267-4.773ZM15.933,6.6a.535.535,0,0,1,.533-.533H23.4a.535.535,0,0,1,.533.533V7.667h-8ZM27.667,27.4a.535.535,0,0,1-.533.533h-14.4A.535.535,0,0,1,12.2,27.4V12.467H27.667Zm.8-16H11.4a1.333,1.333,0,0,1,0-2.667H28.467a1.333,1.333,0,0,1,0,2.667Z" transform="translate(-9 -5)"/></svg>